<svg width="24" height="24" viewBox="0 0 24 24" fill="none" xmlns="http://www.w3.org/2000/svg">
<path d="M17.0457 21.513C17.3269 21.2317 17.4849 20.8502 17.4849 20.4525C17.4849 20.0547 17.3269 19.6733 17.0457 19.392L9.62068 11.967L17.0457 4.54197C17.3189 4.25907 17.4701 3.88016 17.4667 3.48687C17.4633 3.09357 17.3055 2.71735 17.0274 2.43924C16.7493 2.16113 16.3731 2.00338 15.9798 1.99996C15.5865 1.99654 15.2076 2.14773 14.9247 2.42097L6.43918 10.9065C6.15797 11.1878 6 11.5692 6 11.967C6 12.3647 6.15797 12.7462 6.43918 13.0275L14.9247 21.513C15.206 21.7942 15.5874 21.9521 15.9852 21.9521C16.3829 21.9521 16.7644 21.7942 17.0457 21.513Z" fill="white"/>
</svg>
