<svg width="27" height="26" viewBox="0 0 27 26" fill="none" xmlns="http://www.w3.org/2000/svg">
<path d="M23.4169 10.538C23.4169 10.2931 23.3158 10.0584 23.1358 9.88524C22.9558 9.71212 22.7117 9.61486 22.4572 9.61486C22.2026 9.61486 21.9585 9.71212 21.7786 9.88524C21.5986 10.0584 21.4975 10.2931 21.4975 10.538H23.4169ZM5.50253 10.538C5.50253 10.2931 5.40141 10.0584 5.22144 9.88524C5.04146 9.71212 4.79736 9.61486 4.54283 9.61486C4.2883 9.61486 4.0442 9.71212 3.86422 9.88524C3.68424 10.0584 3.58313 10.2931 3.58313 10.538H5.50253ZM24.3382 13.6519C24.426 13.7426 24.532 13.8154 24.6497 13.8658C24.7674 13.9163 24.8945 13.9434 25.0234 13.9456C25.1522 13.9478 25.2802 13.925 25.3997 13.8785C25.5192 13.8321 25.6278 13.763 25.7189 13.6754C25.81 13.5877 25.8819 13.4833 25.9302 13.3683C25.9784 13.2534 26.0021 13.1303 25.9999 13.0063C25.9976 12.8824 25.9694 12.7602 25.9169 12.6469C25.8645 12.5337 25.7888 12.4318 25.6946 12.3473L24.3382 13.6519ZM13.5 1.9223L14.1782 1.26997C13.9982 1.0971 13.7543 1 13.5 1C13.2457 1 13.0018 1.0971 12.8218 1.26997L13.5 1.9223ZM1.30545 12.3473C1.21116 12.4318 1.13553 12.5337 1.08308 12.6469C1.03063 12.7602 1.00242 12.8824 1.00015 13.0063C0.997876 13.1303 1.02158 13.2534 1.06985 13.3683C1.11812 13.4833 1.18996 13.5877 1.28109 13.6754C1.37222 13.763 1.48077 13.8321 1.60027 13.8785C1.71977 13.925 1.84777 13.9478 1.97663 13.9456C2.10549 13.9434 2.23257 13.9163 2.35029 13.8658C2.46801 13.8154 2.57396 13.7426 2.66182 13.6519L1.30545 12.3473ZM7.10202 25H19.898V23.1538H7.10202V25ZM23.4169 21.6153V10.538H21.4975V21.6153H23.4169ZM5.50253 21.6153V10.538H3.58313V21.6153H5.50253ZM25.6946 12.3473L14.1782 1.26997L12.8218 2.57463L24.3382 13.6519L25.6946 12.3473ZM12.8218 1.26997L1.30545 12.3473L2.66182 13.6519L14.1782 2.57463L12.8218 1.26997ZM19.898 25C20.8312 25 21.7263 24.6434 22.3862 24.0086C23.0461 23.3739 23.4169 22.513 23.4169 21.6153H21.4975C21.4975 22.4645 20.7809 23.1538 19.898 23.1538V25ZM7.10202 23.1538C6.2191 23.1538 5.50253 22.4645 5.50253 21.6153H3.58313C3.58313 22.513 3.95387 23.3739 4.61379 24.0086C5.27371 24.6434 6.16875 25 7.10202 25V23.1538Z" fill="white"/>
</svg>
