<svg width="27" height="26" viewBox="0 0 27 26" fill="none" xmlns="http://www.w3.org/2000/svg">
<path fill-rule="evenodd" clip-rule="evenodd" d="M13.5002 2.09766C10.6036 2.09766 8.2555 4.44578 8.2555 7.34233C8.2555 10.2389 10.6036 12.587 13.5002 12.587C16.3967 12.587 18.7448 10.2389 18.7448 7.34233C18.7448 4.44578 16.3967 2.09766 13.5002 2.09766ZM10.3534 7.34233C10.3534 5.6044 11.7622 4.19552 13.5002 4.19552C15.2381 4.19552 16.647 5.6044 16.647 7.34233C16.647 9.08026 15.2381 10.4891 13.5002 10.4891C11.7622 10.4891 10.3534 9.08026 10.3534 7.34233Z" fill="#8C8C8C"/>
<path d="M13.5003 13.6359C7.82508 13.6359 4.58423 18.4592 4.58423 23.0763H6.6821C6.6821 19.302 9.27619 15.7338 13.5003 15.7338C17.7243 15.7338 20.3182 19.3019 20.3182 23.0763H22.4161C22.4161 18.4593 19.1755 13.6359 13.5003 13.6359Z" fill="#8C8C8C"/>
</svg>
