<svg width="16" height="16" viewBox="0 0 16 16" fill="none" xmlns="http://www.w3.org/2000/svg">
<path d="M4.63621 1.65802C4.44874 1.84555 4.34343 2.09986 4.34343 2.36502C4.34343 2.63018 4.44874 2.88449 4.63621 3.07202L9.58621 8.02202L4.63621 12.972C4.45406 13.1606 4.35326 13.4132 4.35554 13.6754C4.35782 13.9376 4.46299 14.1884 4.6484 14.3738C4.8338 14.5592 5.08462 14.6644 5.34681 14.6667C5.60901 14.669 5.86161 14.5682 6.05021 14.386L11.7072 8.72902C11.8947 8.54149 12 8.28719 12 8.02202C12 7.75686 11.8947 7.50255 11.7072 7.31502L6.05021 1.65802C5.86269 1.47055 5.60838 1.36523 5.34321 1.36523C5.07805 1.36523 4.82374 1.47055 4.63621 1.65802Z" fill="#8C8C8C"/>
</svg>
