<svg width="24" height="24" viewBox="0 0 24 24" fill="none" xmlns="http://www.w3.org/2000/svg">
<path d="M21.513 6.95432C21.2317 6.67311 20.8502 6.51514 20.4525 6.51514C20.0547 6.51514 19.6733 6.67311 19.392 6.95432L11.967 14.3793L4.54197 6.95432C4.25907 6.68108 3.88016 6.52989 3.48687 6.53331C3.09357 6.53673 2.71735 6.69448 2.43924 6.97259C2.16113 7.2507 2.00338 7.62692 1.99996 8.02022C1.99654 8.41351 2.14773 8.79242 2.42097 9.07532L10.9065 17.5608C11.1878 17.842 11.5692 18 11.967 18C12.3647 18 12.7462 17.842 13.0275 17.5608L21.513 9.07532C21.7942 8.79403 21.9521 8.41257 21.9521 8.01482C21.9521 7.61707 21.7942 7.23561 21.513 6.95432Z" fill="#161719"/>
</svg>
